<?xml version="1.0" encoding="utf-8"?>
<!-- Svg Vector Icons : http://www.onlinewebfonts.com/icon -->
<!DOCTYPE svg PUBLIC "-//W3C//DTD SVG 1.1//EN" "http://www.w3.org/Graphics/SVG/1.1/DTD/svg11.dtd">
<svg version="1.1" xmlns="http://www.w3.org/2000/svg" xmlns:xlink="http://www.w3.org/1999/xlink" x="0px" y="0px" viewBox="0 0 1000 1000" enable-background="new 0 0 1000 1000" xml:space="preserve">
<metadata> Svg Vector Icons : http://www.onlinewebfonts.com/icon </metadata>
<g><g transform="translate(0.000000,512.000000) scale(0.100000,-0.100000)"><path d="M4592.1,5005.2c-627.3-55.6-1202.8-216.8-1768.7-494.9c-498.8-247.5-870.9-516-1287.2-930.4c-422-423.9-686.7-792.3-938-1306.4C360.3,1784.3,228,1362.3,143.6,819.5C89.8,458.8,84.1-183.8,135.9-527.2C298.9-1649.4,755.5-2566.3,1536.2-3349c778.8-778.8,1711.1-1241.1,2821.8-1400.4c282-40.3,949.6-46,1218.1-9.6c823,111.3,1484.8,356.8,2135.1,788.4C8678-3327.9,9389.7-2363,9710.1-1263.8C9848.2-786.2,9900-402.5,9900,134.6c-1.9,464.2-40.3,776.9-143.9,1193.2c-339.5,1356.2-1296.8,2543.6-2559,3174.8C6399.1,4903.5,5463,5083.8,4592.1,5005.2z M5604.9,3846.5C6990,3622.1,8142.8,2638,8589.8,1300.9c268.6-801.8,245.6-1753.3-59.5-2537.9c-546.7-1396.5-1828.1-2332.6-3312.9-2419l-216.8-13.4V115.4v3784.8l216.8-11.5C5334.5,3881,5510.9,3861.9,5604.9,3846.5z"/></g></g>
</svg>