<svg width="100%" height="100%" id="svg" viewBox="0 0 1440 490" xmlns="http://www.w3.org/2000/svg" class="transition duration-300 ease-in-out delay-150"><defs><linearGradient id="gradient" x1="50%" y1="100%" x2="50%" y2="0%"><stop offset="5%" stop-color="#ffffff"></stop><stop offset="95%" stop-color="#00aaee"></stop></linearGradient></defs><path d="M 0,500 C 0,500 0,166 0,166 C 164.93333333333334,174.13333333333333 329.8666666666667,182.26666666666665 490,172 C 650.1333333333333,161.73333333333335 805.4666666666667,133.06666666666666 963,129 C 1120.5333333333333,124.93333333333332 1280.2666666666667,145.46666666666667 1440,166 C 1440,166 1440,500 1440,500 Z" stroke="none" stroke-width="0" fill="url(#gradient)" fill-opacity="0.53" class="transition-all duration-300 ease-in-out delay-150 path-0"></path><defs><linearGradient id="gradient" x1="50%" y1="100%" x2="50%" y2="0%"><stop offset="5%" stop-color="#ffffff"></stop><stop offset="95%" stop-color="#00aaee"></stop></linearGradient></defs><path d="M 0,500 C 0,500 0,333 0,333 C 135.7333333333333,355 271.4666666666666,377 455,362 C 638.5333333333334,347 869.8666666666668,295 1042,284 C 1214.1333333333332,273 1327.0666666666666,303 1440,333 C 1440,333 1440,500 1440,500 Z" stroke="none" stroke-width="0" fill="url(#gradient)" fill-opacity="1" class="transition-all duration-300 ease-in-out delay-150 path-1"></path></svg>