<svg width="100%" height="100%" id="svg" viewBox="0 0 1440 490" xmlns="http://www.w3.org/2000/svg" class="transition duration-300 ease-in-out delay-150"><defs><linearGradient id="gradient" x1="50%" y1="100%" x2="50%" y2="0%"><stop offset="5%" stop-color="#ffffff"></stop><stop offset="95%" stop-color="#00aaee"></stop></linearGradient></defs><path d="M 0,500 C 0,500 0,125 0,125 C 139.06666666666666,145.8 278.1333333333333,166.6 426,153 C 573.8666666666667,139.4 730.5333333333333,91.39999999999999 901,81 C 1071.4666666666667,70.60000000000001 1255.7333333333333,97.80000000000001 1440,125 C 1440,125 1440,500 1440,500 Z" stroke="none" stroke-width="0" fill="url(#gradient)" fill-opacity="0.4" class="transition-all duration-300 ease-in-out delay-150 path-0"></path><defs><linearGradient id="gradient" x1="50%" y1="100%" x2="50%" y2="0%"><stop offset="5%" stop-color="#ffffff"></stop><stop offset="95%" stop-color="#00aaee"></stop></linearGradient></defs><path d="M 0,500 C 0,500 0,250 0,250 C 155.06666666666666,223.60000000000002 310.1333333333333,197.20000000000002 474,209 C 637.8666666666667,220.79999999999998 810.5333333333333,270.8 973,284 C 1135.4666666666667,297.2 1287.7333333333333,273.6 1440,250 C 1440,250 1440,500 1440,500 Z" stroke="none" stroke-width="0" fill="url(#gradient)" fill-opacity="0.53" class="transition-all duration-300 ease-in-out delay-150 path-1"></path><defs><linearGradient id="gradient" x1="50%" y1="100%" x2="50%" y2="0%"><stop offset="5%" stop-color="#ffffff"></stop><stop offset="95%" stop-color="#00aaee"></stop></linearGradient></defs><path d="M 0,500 C 0,500 0,375 0,375 C 196.40000000000003,358.8666666666667 392.80000000000007,342.7333333333333 569,352 C 745.1999999999999,361.2666666666667 901.1999999999998,395.93333333333334 1043,404 C 1184.8000000000002,412.06666666666666 1312.4,393.5333333333333 1440,375 C 1440,375 1440,500 1440,500 Z" stroke="none" stroke-width="0" fill="url(#gradient)" fill-opacity="1" class="transition-all duration-300 ease-in-out delay-150 path-2"></path></svg>